<?xml version="1.0" standalone="no"?>
<!DOCTYPE svg PUBLIC "-//W3C//DTD SVG 20010904//EN"
 "http://www.w3.org/TR/2001/REC-SVG-20010904/DTD/svg10.dtd">
<svg version="1.0" xmlns="http://www.w3.org/2000/svg"
 width="880.000000pt" height="1060.000000pt" viewBox="0 0 880.000000 1060.000000"
 preserveAspectRatio="xMidYMid meet">

<g transform="translate(0.000000,1060.000000) scale(0.100000,-0.100000)"
fill="#000000" stroke="none">
<path d="M7840 10184 c-396 -80 -1107 -237 -2280 -505 -217 -50 -523 -120
-680 -155 -554 -125 -1677 -389 -2107 -494 -320 -78 -353 -92 -410 -172 l-30
-43 -7 -2775 c-4 -1526 -9 -2776 -11 -2778 -2 -3 -44 11 -92 31 -48 19 -113
42 -143 50 -166 48 -393 60 -570 32 -177 -29 -392 -115 -529 -212 -82 -58
-282 -256 -346 -343 -98 -135 -192 -363 -215 -528 -8 -52 -11 -154 -7 -280 5
-228 23 -315 99 -489 63 -141 125 -229 258 -367 142 -146 245 -225 375 -287
188 -89 303 -118 515 -126 261 -10 435 22 637 117 137 64 213 120 351 255 136
131 207 223 266 342 89 180 133 351 143 550 10 213 -20 373 -110 587 l-43 101
4 2131 c2 1171 7 2136 11 2143 5 7 116 36 247 66 266 59 910 204 1584 356 245
55 623 140 840 189 439 98 899 201 1580 355 294 67 459 100 465 94 6 -6 13
-94 17 -197 7 -213 11 -3392 3 -3392 -2 0 -37 13 -77 29 -203 79 -330 105
-523 104 -273 -1 -558 -90 -750 -234 -113 -85 -294 -273 -362 -377 -74 -112
-146 -279 -174 -399 -25 -112 -37 -402 -20 -522 13 -101 75 -289 129 -397 105
-208 351 -459 564 -574 192 -103 366 -144 618 -144 357 0 615 93 862 311 158
139 271 284 342 434 93 198 126 350 126 578 0 217 -34 391 -104 529 l-24 47
-6 2025 c-8 2612 -16 3858 -26 4043 -8 158 -11 167 -72 227 -70 70 -177 92
-318 64z m-189 -739 c4 -39 7 -198 7 -355 0 -157 -3 -316 -7 -355 l-6 -69 -35
-8 c-662 -144 -1913 -424 -2865 -639 -220 -50 -555 -126 -745 -169 -395 -90
-1037 -238 -1062 -246 -17 -5 -18 20 -18 425 l0 431 23 5 c115 27 614 140 867
196 173 39 470 106 660 149 190 43 557 126 815 184 656 147 1452 326 1695 381
113 26 286 64 385 86 99 22 196 43 215 48 61 16 64 13 71 -64z m-388 -5457
c200 -55 367 -190 457 -368 77 -153 100 -349 61 -513 -54 -228 -194 -398 -410
-500 -75 -35 -96 -40 -195 -48 -134 -10 -285 -2 -346 18 -123 40 -276 151
-355 255 -157 207 -191 509 -84 746 102 227 323 393 574 431 80 13 212 3 298
-21z m-5311 -1221 c108 -35 199 -89 283 -169 293 -278 313 -705 46 -1026 -49
-59 -141 -128 -226 -168 -316 -151 -697 -66 -902 201 -109 142 -157 278 -157
450 0 210 67 368 224 525 119 120 221 176 381 210 79 17 265 5 351 -23z"/>
</g>
</svg>
